<svg width="1008" height="324" viewBox="0 0 1008 324" fill="none" xmlns="http://www.w3.org/2000/svg">
<path d="M19.4656 64L13.5256 78H11.9256L5.98559 64H7.58559L12.7256 75.98L17.8456 64H19.4656ZM18.7629 73C18.7629 69.52 20.5229 67.7 24.2429 67.7C27.9629 67.7 29.7629 69.52 29.7629 73C29.7629 76.48 27.9629 78.3 24.2429 78.3C20.5229 78.3 18.7629 76.48 18.7629 73ZM20.2829 73C20.2829 75.58 21.5629 76.92 24.2429 76.92C26.9229 76.92 28.2229 75.58 28.2229 73C28.2229 70.44 26.9229 69.1 24.2429 69.1C21.5429 69.1 20.2829 70.44 20.2829 73ZM36.27 67.7C39.45 67.7 41.13 69.6 41.13 72H39.77C39.77 70.36 38.67 69.1 36.23 69.1C34.03 69.1 32.49 70.12 32.49 72.98C32.49 75.96 34.19 76.92 36.29 76.92C38.75 76.92 39.79 75.66 39.79 74H41.15C41.15 76.4 39.67 78.3 36.31 78.3C32.85 78.3 30.97 76.48 30.97 73C30.97 69.48 32.59 67.7 36.27 67.7ZM52.5814 73.1V73.46H43.7014C43.8214 76.1 45.3214 77 47.7214 77C49.6814 77 51.1014 75.9 51.1014 74.6H52.4614C52.4614 76.8 50.8014 78.3 47.7014 78.3C43.9814 78.3 42.1614 76.48 42.1614 73C42.1614 69.6 44.0014 67.7 47.3414 67.7C51.0814 67.7 52.5814 69.6 52.5814 73.1ZM43.7414 72.3H51.0614C50.9214 69.92 49.4614 69.02 47.4214 69.02C45.5014 69.02 43.9414 70.12 43.7414 72.3ZM47.9014 62.2L50.8014 66.2H49.5214L47.3614 63L45.2414 66.2H43.9414L46.8614 62.2H47.9014ZM69.4173 73.1V73.46H60.5373C60.6573 76.1 62.1573 77 64.5573 77C66.5173 77 67.9373 75.9 67.9373 74.6H69.2973C69.2973 76.8 67.6373 78.3 64.5373 78.3C60.8173 78.3 58.9973 76.48 58.9973 73C58.9973 69.6 60.8373 67.7 64.1773 67.7C67.9173 67.7 69.4173 69.6 69.4173 73.1ZM60.5773 72.3H67.8973C67.7573 69.92 66.2973 69.02 64.2573 69.02C62.3373 69.02 60.7773 70.12 60.5773 72.3ZM70.6779 70.46C70.6779 68.52 72.4579 67.7 75.1979 67.7C78.5379 67.7 80.1379 68.8 80.1379 71.4H78.7779C78.7779 69.58 77.3779 69.02 75.0579 69.02C72.5579 69.02 72.0779 69.78 72.0779 70.46C72.0779 71.2 72.8779 71.78 75.5779 72.34C78.4979 72.94 80.2379 73.3 80.2379 75.48C80.2379 77.54 78.6779 78.3 75.7379 78.3C72.1979 78.3 70.6379 77.2 70.6379 74.6H71.9979C71.9979 76.4 73.6179 77 75.8179 77C78.0779 77 78.8379 76.4 78.8379 75.54C78.8379 74.24 77.5179 74.2 75.1179 73.68C72.9379 73.24 70.6779 72.56 70.6779 70.46ZM84.0387 74.36V69.38H81.2387V68H84.0387L84.2987 64H85.4587V68H90.7387V69.38H85.4587V74.26C85.4587 75.5 85.7187 76.92 87.2787 76.92C88.3787 76.92 89.3187 76.3 89.3187 74.2H90.6987C90.6987 77.3 89.3387 78.3 87.2587 78.3C85.2987 78.3 84.0387 77.38 84.0387 74.36ZM100.527 78V76.44C100.227 77.46 99.027 78.3 96.507 78.3C93.607 78.3 91.727 77.64 91.727 75.26C91.727 73.36 93.307 72.42 96.787 72.04L100.527 71.64V71.56C100.527 69.18 98.447 69.02 97.027 69.02C95.467 69.02 93.627 69.18 93.627 71.46H92.267C92.267 68.84 94.087 67.7 96.987 67.7C100.327 67.7 101.967 68.96 101.967 71.68V78H100.527ZM100.527 74.6V72.74L96.727 73.14C94.967 73.34 93.247 73.88 93.247 75.26C93.247 76.26 93.847 77 96.567 77C99.527 77 100.527 75.44 100.527 74.6ZM95.347 65.7L97.907 61.86L98.847 62.54L96.067 66.2L95.347 65.7ZM42.8122 98V96.44C42.5122 97.46 41.3122 98.3 38.7922 98.3C35.8922 98.3 34.0122 97.64 34.0122 95.26C34.0122 93.36 35.5922 92.42 39.0722 92.04L42.8122 91.64V91.56C42.8122 89.18 40.7322 89.02 39.3122 89.02C37.7522 89.02 35.9122 89.18 35.9122 91.46H34.5522C34.5522 88.84 36.3722 87.7 39.2722 87.7C42.6122 87.7 44.2522 88.96 44.2522 91.68V98H42.8122ZM42.8122 94.6V92.74L39.0122 93.14C37.2522 93.34 35.5322 93.88 35.5322 95.26C35.5322 96.26 36.1322 97 38.8522 97C41.8122 97 42.8122 95.44 42.8122 94.6ZM54.4575 102V96.42C53.8575 97.56 52.7175 98.3 50.6575 98.3C47.7975 98.3 45.6575 96.48 45.6575 93C45.6575 89.52 47.4175 87.7 50.5775 87.7C52.6575 87.7 53.8375 88.38 54.4575 89.52V88H55.8975V102H54.4575ZM47.1775 93C47.1775 95.54 48.4175 96.92 50.7975 96.92C53.2375 96.92 54.4575 95.54 54.4575 93C54.4575 90.44 53.2375 89.1 50.7975 89.1C48.0575 89.1 47.1775 90.44 47.1775 93ZM57.7129 88H59.1329V93.64C59.1329 95.58 59.7529 96.92 62.4529 96.92C64.8729 96.92 66.1129 95.58 66.1129 93.02V88H67.5529V98H66.1129V96.44C65.4529 97.58 64.2529 98.3 62.2129 98.3C59.0929 98.3 57.7129 96.78 57.7129 93.7V88ZM69.5731 98V88H70.9931V98H69.5731ZM69.1131 84.96C69.1131 84.18 69.4731 83.8 70.2731 83.8C71.0931 83.8 71.4531 84.18 71.4531 84.96C71.4531 85.74 71.0931 86.14 70.2731 86.14C69.4731 86.14 69.1131 85.74 69.1131 84.96ZM73.0506 84H74.4906L74.3906 93.2H73.1506L73.0506 84ZM72.6106 97.14C72.6106 96.36 72.9506 95.98 73.7706 95.98C74.5906 95.98 74.9306 96.36 74.9306 97.14C74.9306 97.94 74.5906 98.3 73.7706 98.3C72.9506 98.3 72.6106 97.94 72.6106 97.14Z" fill="white"/>
<path d="M260.143 78V64H266.343C270.263 64 271.963 65.56 271.963 68.6C271.963 71.62 270.303 73.18 266.343 73.18H261.603V78H260.143ZM261.603 71.78H266.403C269.303 71.78 270.403 70.72 270.403 68.6C270.403 66.46 269.303 65.42 266.403 65.42H261.603V71.78ZM283.151 73.1V73.46H274.271C274.391 76.1 275.891 77 278.291 77C280.251 77 281.671 75.9 281.671 74.6H283.031C283.031 76.8 281.371 78.3 278.271 78.3C274.551 78.3 272.731 76.48 272.731 73C272.731 69.6 274.571 67.7 277.911 67.7C281.651 67.7 283.151 69.6 283.151 73.1ZM274.311 72.3H281.631C281.491 69.92 280.031 69.02 277.991 69.02C276.071 69.02 274.511 70.12 274.311 72.3ZM292.772 78V76.42C292.192 77.56 291.112 78.3 289.152 78.3C286.412 78.3 284.372 76.48 284.372 73C284.372 69.52 286.052 67.7 289.072 67.7C291.072 67.7 292.192 68.38 292.772 69.52V63H294.212V78H292.772ZM285.892 73C285.892 75.54 287.072 76.92 289.312 76.92C291.612 76.92 292.772 75.54 292.772 73C292.772 70.44 291.612 69.1 289.312 69.1C286.732 69.1 285.892 70.44 285.892 73ZM296.237 78V68H297.657V78H296.237ZM295.777 64.96C295.777 64.18 296.137 63.8 296.937 63.8C297.757 63.8 298.117 64.18 298.117 64.96C298.117 65.74 297.757 66.14 296.937 66.14C296.137 66.14 295.777 65.74 295.777 64.96ZM307.674 78V76.42C307.094 77.56 306.014 78.3 304.054 78.3C301.314 78.3 299.274 76.48 299.274 73C299.274 69.52 300.954 67.7 303.974 67.7C305.974 67.7 307.094 68.38 307.674 69.52V63H309.114V78H307.674ZM300.794 73C300.794 75.54 301.974 76.92 304.214 76.92C306.514 76.92 307.674 75.54 307.674 73C307.674 70.44 306.514 69.1 304.214 69.1C301.634 69.1 300.794 70.44 300.794 73ZM310.739 73C310.739 69.52 312.499 67.7 316.219 67.7C319.939 67.7 321.739 69.52 321.739 73C321.739 76.48 319.939 78.3 316.219 78.3C312.499 78.3 310.739 76.48 310.739 73ZM312.259 73C312.259 75.58 313.539 76.92 316.219 76.92C318.899 76.92 320.199 75.58 320.199 73C320.199 70.44 318.899 69.1 316.219 69.1C313.519 69.1 312.259 70.44 312.259 73ZM336.541 78V76.42C335.961 77.56 334.881 78.3 332.921 78.3C330.181 78.3 328.141 76.48 328.141 73C328.141 69.52 329.821 67.7 332.841 67.7C334.841 67.7 335.961 68.38 336.541 69.52V63H337.981V78H336.541ZM329.661 73C329.661 75.54 330.841 76.92 333.081 76.92C335.381 76.92 336.541 75.54 336.541 73C336.541 70.44 335.381 69.1 333.081 69.1C330.501 69.1 329.661 70.44 329.661 73ZM350.026 73.1V73.46H341.146C341.266 76.1 342.766 77 345.166 77C347.126 77 348.546 75.9 348.546 74.6H349.906C349.906 76.8 348.246 78.3 345.146 78.3C341.426 78.3 339.606 76.48 339.606 73C339.606 69.6 341.446 67.7 344.786 67.7C348.526 67.7 350.026 69.6 350.026 73.1ZM341.186 72.3H348.506C348.366 69.92 346.906 69.02 344.866 69.02C342.946 69.02 341.386 70.12 341.186 72.3ZM251.745 93C251.745 89.52 253.505 87.7 257.225 87.7C260.945 87.7 262.745 89.52 262.745 93C262.745 96.48 260.945 98.3 257.225 98.3C253.505 98.3 251.745 96.48 251.745 93ZM253.265 93C253.265 95.58 254.545 96.92 257.225 96.92C259.905 96.92 261.205 95.58 261.205 93C261.205 90.44 259.905 89.1 257.225 89.1C254.525 89.1 253.265 90.44 253.265 93ZM265.772 98H264.352V88H265.772V89.46C266.392 88.36 267.472 87.7 269.092 87.7C271.672 87.7 272.832 89.26 272.832 92.04H271.472C271.472 90.28 270.892 89.1 268.892 89.1C266.952 89.1 265.772 90.44 265.772 93V98ZM279.017 87.7C282.197 87.7 283.877 89.6 283.877 92H282.517C282.517 90.36 281.417 89.1 278.977 89.1C276.777 89.1 275.237 90.12 275.237 92.98C275.237 95.96 276.937 96.92 279.037 96.92C281.497 96.92 282.537 95.66 282.537 94H283.897C283.897 96.4 282.417 98.3 279.057 98.3C275.597 98.3 273.717 96.48 273.717 93C273.717 89.48 275.337 87.7 279.017 87.7ZM278.457 98.26H279.577L279.037 99.44C279.977 99.44 280.957 99.76 280.957 101.12C280.957 102.48 280.157 103.04 278.997 103.04C278.677 103.04 276.997 103 276.997 101.44H278.077C278.077 101.78 278.537 101.98 278.917 101.98C279.477 101.98 279.777 101.7 279.777 101.16C279.777 100.52 279.217 100.32 278.357 100.32H277.737L278.457 98.26ZM293.509 98V96.44C293.209 97.46 292.009 98.3 289.489 98.3C286.589 98.3 284.709 97.64 284.709 95.26C284.709 93.36 286.289 92.42 289.769 92.04L293.509 91.64V91.56C293.509 89.18 291.429 89.02 290.009 89.02C288.449 89.02 286.609 89.18 286.609 91.46H285.249C285.249 88.84 287.069 87.7 289.969 87.7C293.309 87.7 294.949 88.96 294.949 91.68V98H293.509ZM293.509 94.6V92.74L289.709 93.14C287.949 93.34 286.229 93.88 286.229 95.26C286.229 96.26 286.829 97 289.549 97C292.509 97 293.509 95.44 293.509 94.6ZM305.494 98H304.054V91.72C304.054 90.44 303.534 89.1 301.274 89.1C299.214 89.1 298.174 90.44 298.174 93V98H296.754V88H298.174V89.48C298.814 88.36 299.894 87.7 301.574 87.7C303.354 87.7 304.474 88.4 305.034 89.44C305.634 88.52 306.774 87.7 308.634 87.7C311.574 87.7 312.814 89.22 312.814 92.32V98H311.374V92.38C311.374 90.44 310.854 89.1 308.594 89.1C306.534 89.1 305.494 90.44 305.494 91.74V98ZM324.626 93.1V93.46H315.746C315.866 96.1 317.366 97 319.766 97C321.726 97 323.146 95.9 323.146 94.6H324.506C324.506 96.8 322.846 98.3 319.746 98.3C316.026 98.3 314.206 96.48 314.206 93C314.206 89.6 316.046 87.7 319.386 87.7C323.126 87.7 324.626 89.6 324.626 93.1ZM315.786 92.3H323.106C322.966 89.92 321.506 89.02 319.466 89.02C317.546 89.02 315.986 90.12 315.786 92.3ZM327.666 98H326.246V88H327.666V89.48C328.346 88.36 329.546 87.7 331.586 87.7C334.706 87.7 336.086 89.22 336.086 92.32V98H334.646V92.38C334.646 90.44 334.046 89.1 331.326 89.1C328.906 89.1 327.666 90.44 327.666 93V98ZM339.149 94.36V89.38H336.349V88H339.149L339.409 84H340.569V88H345.849V89.38H340.569V94.26C340.569 95.5 340.829 96.92 342.389 96.92C343.489 96.92 344.429 96.3 344.429 94.2H345.809C345.809 97.3 344.449 98.3 342.369 98.3C340.409 98.3 339.149 97.38 339.149 94.36ZM347.038 93C347.038 89.52 348.798 87.7 352.518 87.7C356.238 87.7 358.038 89.52 358.038 93C358.038 96.48 356.238 98.3 352.518 98.3C348.798 98.3 347.038 96.48 347.038 93ZM348.558 93C348.558 95.58 349.838 96.92 352.518 96.92C355.198 96.92 356.498 95.58 356.498 93C356.498 90.44 355.198 89.1 352.518 89.1C349.818 89.1 348.558 90.44 348.558 93Z" fill="white"/>
<path d="M598.381 78V64H604.581C608.501 64 610.201 65.42 610.201 68.14C610.201 70.74 608.661 72.24 605.361 72.24H605.141L609.881 78H608.061L603.361 72.28H599.841V78H598.381ZM599.841 70.88H604.661C607.581 70.88 608.641 69.96 608.641 68.14C608.641 66.32 607.581 65.42 604.661 65.42H599.841V70.88ZM621.077 73.1V73.46H612.197C612.317 76.1 613.817 77 616.217 77C618.177 77 619.597 75.9 619.597 74.6H620.957C620.957 76.8 619.297 78.3 616.197 78.3C612.477 78.3 610.657 76.48 610.657 73C610.657 69.6 612.497 67.7 615.837 67.7C619.577 67.7 621.077 69.6 621.077 73.1ZM612.237 72.3H619.557C619.417 69.92 617.957 69.02 615.917 69.02C613.997 69.02 612.437 70.12 612.237 72.3ZM622.497 68H623.917V73.64C623.917 75.58 624.537 76.92 627.237 76.92C629.657 76.92 630.897 75.58 630.897 73.02V68H632.337V78H630.897V76.44C630.237 77.58 629.037 78.3 626.997 78.3C623.877 78.3 622.497 76.78 622.497 73.7V68ZM635.778 78H634.358V68H635.778V69.48C636.458 68.36 637.658 67.7 639.698 67.7C642.818 67.7 644.198 69.22 644.198 72.32V78H642.758V72.38C642.758 70.44 642.158 69.1 639.438 69.1C637.018 69.1 635.778 70.44 635.778 73V78ZM646.018 78V68H647.438V78H646.018ZM645.558 64.96C645.558 64.18 645.918 63.8 646.718 63.8C647.538 63.8 647.898 64.18 647.898 64.96C647.898 65.74 647.538 66.14 646.718 66.14C645.918 66.14 645.558 65.74 645.558 64.96ZM657.655 78V76.44C657.355 77.46 656.155 78.3 653.635 78.3C650.735 78.3 648.855 77.64 648.855 75.26C648.855 73.36 650.435 72.42 653.915 72.04L657.655 71.64V71.56C657.655 69.18 655.575 69.02 654.155 69.02C652.595 69.02 650.755 69.18 650.755 71.46H649.395C649.395 68.84 651.215 67.7 654.115 67.7C657.455 67.7 659.095 68.96 659.095 71.68V78H657.655ZM657.655 74.6V72.74L653.855 73.14C652.095 73.34 650.375 73.88 650.375 75.26C650.375 76.26 650.975 77 653.695 77C656.655 77 657.655 75.44 657.655 74.6ZM650.435 66.2C650.435 64.64 650.935 63.18 652.635 63.18C654.315 63.18 655.055 65.24 656.095 65.24C656.775 65.24 656.875 64.48 656.875 63.38H658.055C658.055 64.98 657.675 66.4 656.255 66.4C654.335 66.4 654.095 64.36 652.655 64.36C652.215 64.36 651.595 64.64 651.595 66.2H650.435ZM660.501 73C660.501 69.52 662.261 67.7 665.981 67.7C669.701 67.7 671.501 69.52 671.501 73C671.501 76.48 669.701 78.3 665.981 78.3C662.261 78.3 660.501 76.48 660.501 73ZM662.021 73C662.021 75.58 663.301 76.92 665.981 76.92C668.661 76.92 669.961 75.58 669.961 73C669.961 70.44 668.661 69.1 665.981 69.1C663.281 69.1 662.021 70.44 662.021 73ZM686.303 78V76.42C685.723 77.56 684.643 78.3 682.683 78.3C679.943 78.3 677.903 76.48 677.903 73C677.903 69.52 679.583 67.7 682.603 67.7C684.603 67.7 685.723 68.38 686.303 69.52V63H687.743V78H686.303ZM679.423 73C679.423 75.54 680.603 76.92 682.843 76.92C685.143 76.92 686.303 75.54 686.303 73C686.303 70.44 685.143 69.1 682.843 69.1C680.263 69.1 679.423 70.44 679.423 73ZM699.788 73.1V73.46H690.908C691.028 76.1 692.528 77 694.928 77C696.888 77 698.308 75.9 698.308 74.6H699.668C699.668 76.8 698.008 78.3 694.908 78.3C691.188 78.3 689.368 76.48 689.368 73C689.368 69.6 691.208 67.7 694.548 67.7C698.288 67.7 699.788 69.6 699.788 73.1ZM690.948 72.3H698.268C698.128 69.92 696.668 69.02 694.628 69.02C692.708 69.02 691.148 70.12 690.948 72.3ZM595.571 98V96.42C594.991 97.56 593.911 98.3 591.951 98.3C589.211 98.3 587.171 96.48 587.171 93C587.171 89.52 588.851 87.7 591.871 87.7C593.871 87.7 594.991 88.38 595.571 89.52V83H597.011V98H595.571ZM588.691 93C588.691 95.54 589.871 96.92 592.111 96.92C594.411 96.92 595.571 95.54 595.571 93C595.571 90.44 594.411 89.1 592.111 89.1C589.531 89.1 588.691 90.44 588.691 93ZM609.055 93.1V93.46H600.175C600.295 96.1 601.795 97 604.195 97C606.155 97 607.575 95.9 607.575 94.6H608.935C608.935 96.8 607.275 98.3 604.175 98.3C600.455 98.3 598.635 96.48 598.635 93C598.635 89.6 600.475 87.7 603.815 87.7C607.555 87.7 609.055 89.6 609.055 93.1ZM600.215 92.3H607.535C607.395 89.92 605.935 89.02 603.895 89.02C601.975 89.02 600.415 90.12 600.215 92.3ZM610.316 90.46C610.316 88.52 612.096 87.7 614.836 87.7C618.176 87.7 619.776 88.8 619.776 91.4H618.416C618.416 89.58 617.016 89.02 614.696 89.02C612.196 89.02 611.716 89.78 611.716 90.46C611.716 91.2 612.516 91.78 615.216 92.34C618.136 92.94 619.876 93.3 619.876 95.48C619.876 97.54 618.316 98.3 615.376 98.3C611.836 98.3 610.276 97.2 610.276 94.6H611.636C611.636 96.4 613.256 97 615.456 97C617.716 97 618.476 96.4 618.476 95.54C618.476 94.24 617.156 94.2 614.756 93.68C612.576 93.24 610.316 92.56 610.316 90.46ZM626.377 87.7C629.557 87.7 631.237 89.6 631.237 92H629.877C629.877 90.36 628.777 89.1 626.337 89.1C624.137 89.1 622.597 90.12 622.597 92.98C622.597 95.96 624.297 96.92 626.397 96.92C628.857 96.92 629.897 95.66 629.897 94H631.257C631.257 96.4 629.777 98.3 626.417 98.3C622.957 98.3 621.077 96.48 621.077 93C621.077 89.48 622.697 87.7 626.377 87.7ZM632.268 93C632.268 89.52 634.028 87.7 637.748 87.7C641.468 87.7 643.268 89.52 643.268 93C643.268 96.48 641.468 98.3 637.748 98.3C634.028 98.3 632.268 96.48 632.268 93ZM633.788 93C633.788 95.58 635.068 96.92 637.748 96.92C640.428 96.92 641.728 95.58 641.728 93C641.728 90.44 640.428 89.1 637.748 89.1C635.048 89.1 633.788 90.44 633.788 93ZM646.295 98H644.875V83H646.295V89.48C646.915 88.36 648.035 87.7 649.995 87.7C652.795 87.7 654.715 89.52 654.715 93C654.715 96.48 652.415 98.3 649.915 98.3C647.995 98.3 646.895 97.58 646.295 96.46V98ZM653.175 93C653.175 90.44 652.155 89.1 649.775 89.1C647.535 89.1 646.295 90.44 646.295 93C646.295 95.54 647.535 96.92 649.775 96.92C651.795 96.92 653.175 95.54 653.175 93ZM666.36 93.1V93.46H657.48C657.6 96.1 659.1 97 661.5 97C663.46 97 664.88 95.9 664.88 94.6H666.24C666.24 96.8 664.58 98.3 661.48 98.3C657.76 98.3 655.94 96.48 655.94 93C655.94 89.6 657.78 87.7 661.12 87.7C664.86 87.7 666.36 89.6 666.36 93.1ZM657.52 92.3H664.84C664.7 89.92 663.24 89.02 661.2 89.02C659.28 89.02 657.72 90.12 657.52 92.3ZM669.401 98H667.981V88H669.401V89.46C670.021 88.36 671.101 87.7 672.721 87.7C675.301 87.7 676.461 89.26 676.461 92.04H675.101C675.101 90.28 674.521 89.1 672.521 89.1C670.581 89.1 669.401 90.44 669.401 93V98ZM680.083 94.36V89.38H677.283V88H680.083L680.343 84H681.503V88H686.783V89.38H681.503V94.26C681.503 95.5 681.763 96.92 683.323 96.92C684.423 96.92 685.363 96.3 685.363 94.2H686.743C686.743 97.3 685.383 98.3 683.303 98.3C681.343 98.3 680.083 97.38 680.083 94.36ZM696.571 98V96.44C696.271 97.46 695.071 98.3 692.551 98.3C689.651 98.3 687.771 97.64 687.771 95.26C687.771 93.36 689.351 92.42 692.831 92.04L696.571 91.64V91.56C696.571 89.18 694.491 89.02 693.071 89.02C691.511 89.02 689.671 89.18 689.671 91.46H688.311C688.311 88.84 690.131 87.7 693.031 87.7C696.371 87.7 698.011 88.96 698.011 91.68V98H696.571ZM696.571 94.6V92.74L692.771 93.14C691.011 93.34 689.291 93.88 689.291 95.26C689.291 96.26 689.891 97 692.611 97C695.571 97 696.571 95.44 696.571 94.6ZM704.612 92.82V91.64H707.012V89.22H708.192V91.64H710.612V92.82H708.192V95.22H707.012V92.82H704.612ZM617.668 118V104H619.128V111L626.048 104H627.988L621.068 111L627.988 118H626.048L619.128 111V118H617.668ZM629.016 118V108H630.436V118H629.016ZM628.556 104.96C628.556 104.18 628.916 103.8 629.716 103.8C630.536 103.8 630.896 104.18 630.896 104.96C630.896 105.74 630.536 106.14 629.716 106.14C628.916 106.14 628.556 105.74 628.556 104.96ZM637.353 107.7C640.533 107.7 642.213 109.6 642.213 112H640.853C640.853 110.36 639.753 109.1 637.313 109.1C635.113 109.1 633.573 110.12 633.573 112.98C633.573 115.96 635.273 116.92 637.373 116.92C639.833 116.92 640.873 115.66 640.873 114H642.233C642.233 116.4 640.753 118.3 637.393 118.3C633.933 118.3 632.053 116.48 632.053 113C632.053 109.48 633.673 107.7 637.353 107.7ZM647.125 113L652.845 118H650.805L645.065 113L650.805 108H652.845L647.125 113ZM645.065 118H643.645V103H645.065V118ZM653.323 113C653.323 109.52 655.083 107.7 658.803 107.7C662.523 107.7 664.323 109.52 664.323 113C664.323 116.48 662.523 118.3 658.803 118.3C655.083 118.3 653.323 116.48 653.323 113ZM654.843 113C654.843 115.58 656.123 116.92 658.803 116.92C661.483 116.92 662.783 115.58 662.783 113C662.783 110.44 661.483 109.1 658.803 109.1C656.103 109.1 654.843 110.44 654.843 113ZM667.63 106.96C667.63 104.3 668.53 103 670.63 103C672.55 103 673.63 104 673.63 107.1H672.27C672.27 105.08 671.69 104.4 670.59 104.4C669.59 104.4 669.05 104.94 669.05 107V108H673.85V106.96C673.85 104.3 674.85 103 677.17 103C679.29 103 680.51 104 680.51 107.1H679.13C679.13 105.08 678.43 104.4 677.13 104.4C675.91 104.4 675.29 104.94 675.29 107V108H680.39V109.38H675.29V118H673.85V109.38H669.05V118H667.63V109.38H665.33V108H667.63V106.96Z" fill="white"/>
<path d="M864.633 97V83H875.233V84.42H866.093V89.3H874.433V90.7H866.093V95.6H875.433V97H864.633ZM879.04 93.36V88.38H876.24V87H879.04L879.3 83H880.46V87H885.74V88.38H880.46V93.26C880.46 94.5 880.72 95.92 882.28 95.92C883.38 95.92 884.32 95.3 884.32 93.2H885.7C885.7 96.3 884.34 97.3 882.26 97.3C880.3 97.3 879.04 96.38 879.04 93.36ZM895.529 97V95.44C895.229 96.46 894.029 97.3 891.509 97.3C888.609 97.3 886.729 96.64 886.729 94.26C886.729 92.36 888.309 91.42 891.789 91.04L895.529 90.64V90.56C895.529 88.18 893.449 88.02 892.029 88.02C890.469 88.02 888.629 88.18 888.629 90.46H887.269C887.269 87.84 889.089 86.7 891.989 86.7C895.329 86.7 896.969 87.96 896.969 90.68V97H895.529ZM895.529 93.6V91.74L891.729 92.14C889.969 92.34 888.249 92.88 888.249 94.26C888.249 95.26 888.849 96 891.569 96C894.529 96 895.529 94.44 895.529 93.6ZM900.194 101H898.774V87H900.194V88.48C900.814 87.36 901.934 86.7 903.894 86.7C906.694 86.7 908.614 88.52 908.614 92C908.614 95.48 906.314 97.3 903.814 97.3C901.894 97.3 900.794 96.58 900.194 95.46V101ZM907.074 92C907.074 89.44 906.054 88.1 903.674 88.1C901.434 88.1 900.194 89.44 900.194 92C900.194 94.54 901.434 95.92 903.674 95.92C905.694 95.92 907.074 94.54 907.074 92ZM918.439 97V95.44C918.139 96.46 916.939 97.3 914.419 97.3C911.519 97.3 909.639 96.64 909.639 94.26C909.639 92.36 911.219 91.42 914.699 91.04L918.439 90.64V90.56C918.439 88.18 916.359 88.02 914.939 88.02C913.379 88.02 911.539 88.18 911.539 90.46H910.179C910.179 87.84 911.999 86.7 914.899 86.7C918.239 86.7 919.879 87.96 919.879 90.68V97H918.439ZM918.439 93.6V91.74L914.639 92.14C912.879 92.34 911.159 92.88 911.159 94.26C911.159 95.26 911.759 96 914.479 96C917.439 96 918.439 94.44 918.439 93.6ZM934.879 97V95.42C934.299 96.56 933.219 97.3 931.259 97.3C928.519 97.3 926.479 95.48 926.479 92C926.479 88.52 928.159 86.7 931.179 86.7C933.179 86.7 934.299 87.38 934.879 88.52V82H936.319V97H934.879ZM927.999 92C927.999 94.54 929.179 95.92 931.419 95.92C933.719 95.92 934.879 94.54 934.879 92C934.879 89.44 933.719 88.1 931.419 88.1C928.839 88.1 927.999 89.44 927.999 92ZM946.544 97V95.44C946.244 96.46 945.044 97.3 942.524 97.3C939.624 97.3 937.744 96.64 937.744 94.26C937.744 92.36 939.324 91.42 942.804 91.04L946.544 90.64V90.56C946.544 88.18 944.464 88.02 943.044 88.02C941.484 88.02 939.644 88.18 939.644 90.46H938.284C938.284 87.84 940.104 86.7 943.004 86.7C946.344 86.7 947.984 87.96 947.984 90.68V97H946.544ZM946.544 93.6V91.74L942.744 92.14C940.984 92.34 939.264 92.88 939.264 94.26C939.264 95.26 939.864 96 942.584 96C945.544 96 946.544 94.44 946.544 93.6ZM830.903 117V107H832.323V117H830.903ZM830.443 103.96C830.443 103.18 830.803 102.8 831.603 102.8C832.423 102.8 832.783 103.18 832.783 103.96C832.783 104.74 832.423 105.14 831.603 105.14C830.803 105.14 830.443 104.74 830.443 103.96ZM835.76 117H834.34V107H835.76V108.48C836.44 107.36 837.64 106.7 839.68 106.7C842.8 106.7 844.18 108.22 844.18 111.32V117H842.74V111.38C842.74 109.44 842.14 108.1 839.42 108.1C837 108.1 835.76 109.44 835.76 112V117ZM848.96 117L844.6 107H846.16L849.76 115.18L853.32 107H854.9L850.54 117H848.96ZM865.532 112.1V112.46H856.652C856.772 115.1 858.272 116 860.672 116C862.632 116 864.052 114.9 864.052 113.6H865.412C865.412 115.8 863.752 117.3 860.652 117.3C856.932 117.3 855.112 115.48 855.112 112C855.112 108.6 856.952 106.7 860.292 106.7C864.032 106.7 865.532 108.6 865.532 112.1ZM856.692 111.3H864.012C863.872 108.92 862.412 108.02 860.372 108.02C858.452 108.02 856.892 109.12 856.692 111.3ZM866.793 109.46C866.793 107.52 868.573 106.7 871.313 106.7C874.653 106.7 876.253 107.8 876.253 110.4H874.893C874.893 108.58 873.493 108.02 871.173 108.02C868.673 108.02 868.193 108.78 868.193 109.46C868.193 110.2 868.993 110.78 871.693 111.34C874.613 111.94 876.353 112.3 876.353 114.48C876.353 116.54 874.793 117.3 871.853 117.3C868.313 117.3 866.753 116.2 866.753 113.6H868.113C868.113 115.4 869.733 116 871.933 116C874.193 116 874.953 115.4 874.953 114.54C874.953 113.24 873.633 113.2 871.233 112.68C869.053 112.24 866.793 111.56 866.793 109.46ZM880.154 113.36V108.38H877.354V107H880.154L880.414 103H881.574V107H886.854V108.38H881.574V113.26C881.574 114.5 881.834 115.92 883.394 115.92C884.494 115.92 885.434 115.3 885.434 113.2H886.814C886.814 116.3 885.454 117.3 883.374 117.3C881.414 117.3 880.154 116.38 880.154 113.36ZM888.442 117V107H889.862V117H888.442ZM887.982 103.96C887.982 103.18 888.342 102.8 889.142 102.8C889.962 102.8 890.322 103.18 890.322 103.96C890.322 104.74 889.962 105.14 889.142 105.14C888.342 105.14 887.982 104.74 887.982 103.96ZM901.779 104.64V105.9C901.139 105.52 900.319 105.34 899.599 105.34C898.879 105.34 897.839 105.76 897.819 107.22H896.979C896.979 105.5 897.899 104.1 899.619 104.1C900.459 104.1 901.179 104.36 901.779 104.64ZM891.619 110.2C891.619 107.88 893.259 106.7 896.499 106.7C899.739 106.7 901.419 107.88 901.419 110.2C901.419 112.52 899.919 113.7 896.679 113.7C893.419 113.7 891.619 112.52 891.619 110.2ZM893.159 110.2C893.159 111.74 894.519 112.4 896.639 112.4C898.839 112.4 899.879 111.74 899.879 110.2C899.879 108.68 898.659 108.02 896.479 108.02C893.999 108.02 893.159 108.68 893.159 110.2ZM896.639 112.58V113.7C894.139 113.7 892.859 113.74 892.859 114.48C892.859 115.1 893.899 115.24 896.839 115.54C899.799 115.82 901.899 115.78 901.899 118.3C901.899 120.3 900.299 121.2 896.959 121.2C892.999 121.2 891.479 120.1 891.479 117.5H892.839C892.839 119.3 894.199 119.9 896.819 119.9C898.979 119.9 900.579 119.6 900.579 118.32C900.579 116.88 899.139 117.24 896.499 116.92C894.179 116.62 891.539 116.6 891.539 114.64C891.539 112.6 894.059 112.58 896.639 112.58ZM911.7 117V115.44C911.4 116.46 910.2 117.3 907.68 117.3C904.78 117.3 902.9 116.64 902.9 114.26C902.9 112.36 904.48 111.42 907.96 111.04L911.7 110.64V110.56C911.7 108.18 909.62 108.02 908.2 108.02C906.64 108.02 904.8 108.18 904.8 110.46H903.44C903.44 107.84 905.26 106.7 908.16 106.7C911.5 106.7 913.14 107.96 913.14 110.68V117H911.7ZM911.7 113.6V111.74L907.9 112.14C906.14 112.34 904.42 112.88 904.42 114.26C904.42 115.26 905.02 116 907.74 116C910.7 116 911.7 114.44 911.7 113.6ZM919.846 106.7C923.026 106.7 924.706 108.6 924.706 111H923.346C923.346 109.36 922.246 108.1 919.806 108.1C917.606 108.1 916.066 109.12 916.066 111.98C916.066 114.96 917.766 115.92 919.866 115.92C922.326 115.92 923.366 114.66 923.366 113H924.726C924.726 115.4 923.246 117.3 919.886 117.3C916.426 117.3 914.546 115.48 914.546 112C914.546 108.48 916.166 106.7 919.846 106.7ZM919.286 117.26H920.406L919.866 118.44C920.806 118.44 921.786 118.76 921.786 120.12C921.786 121.48 920.986 122.04 919.826 122.04C919.506 122.04 917.826 122 917.826 120.44H918.906C918.906 120.78 919.366 120.98 919.746 120.98C920.306 120.98 920.606 120.7 920.606 120.16C920.606 119.52 920.046 119.32 919.186 119.32H918.566L919.286 117.26ZM934.337 117V115.44C934.037 116.46 932.837 117.3 930.317 117.3C927.417 117.3 925.537 116.64 925.537 114.26C925.537 112.36 927.117 111.42 930.597 111.04L934.337 110.64V110.56C934.337 108.18 932.257 108.02 930.837 108.02C929.277 108.02 927.437 108.18 927.437 110.46H926.077C926.077 107.84 927.897 106.7 930.797 106.7C934.137 106.7 935.777 107.96 935.777 110.68V117H934.337ZM934.337 113.6V111.74L930.537 112.14C928.777 112.34 927.057 112.88 927.057 114.26C927.057 115.26 927.657 116 930.377 116C933.337 116 934.337 114.44 934.337 113.6ZM927.117 105.2C927.117 103.64 927.617 102.18 929.317 102.18C930.997 102.18 931.737 104.24 932.777 104.24C933.457 104.24 933.557 103.48 933.557 102.38H934.737C934.737 103.98 934.357 105.4 932.937 105.4C931.017 105.4 930.777 103.36 929.337 103.36C928.897 103.36 928.277 103.64 928.277 105.2H927.117ZM937.182 112C937.182 108.52 938.942 106.7 942.662 106.7C946.382 106.7 948.182 108.52 948.182 112C948.182 115.48 946.382 117.3 942.662 117.3C938.942 117.3 937.182 115.48 937.182 112ZM938.702 112C938.702 114.58 939.982 115.92 942.662 115.92C945.342 115.92 946.642 114.58 946.642 112C946.642 109.44 945.342 108.1 942.662 108.1C939.962 108.1 938.702 109.44 938.702 112Z" fill="white"/>
<path d="M861.193 298V284H862.653V296.6H871.753V298H861.193ZM881.346 298V296.44C881.046 297.46 879.846 298.3 877.326 298.3C874.426 298.3 872.546 297.64 872.546 295.26C872.546 293.36 874.126 292.42 877.606 292.04L881.346 291.64V291.56C881.346 289.18 879.266 289.02 877.846 289.02C876.286 289.02 874.446 289.18 874.446 291.46H873.086C873.086 288.84 874.906 287.7 877.806 287.7C881.146 287.7 882.786 288.96 882.786 291.68V298H881.346ZM881.346 294.6V292.74L877.546 293.14C875.786 293.34 874.066 293.88 874.066 295.26C874.066 296.26 874.666 297 877.386 297C880.346 297 881.346 295.44 881.346 294.6ZM886.011 302H884.591V288H886.011V289.48C886.631 288.36 887.751 287.7 889.711 287.7C892.511 287.7 894.431 289.52 894.431 293C894.431 296.48 892.131 298.3 889.631 298.3C887.711 298.3 886.611 297.58 886.011 296.46V302ZM892.891 293C892.891 290.44 891.871 289.1 889.491 289.1C887.251 289.1 886.011 290.44 886.011 293C886.011 295.54 887.251 296.92 889.491 296.92C891.511 296.92 892.891 295.54 892.891 293ZM896.056 298V288H897.476V298H896.056ZM895.596 284.96C895.596 284.18 895.956 283.8 896.756 283.8C897.576 283.8 897.936 284.18 897.936 284.96C897.936 285.74 897.576 286.14 896.756 286.14C895.956 286.14 895.596 285.74 895.596 284.96ZM907.493 298V296.42C906.913 297.56 905.833 298.3 903.873 298.3C901.133 298.3 899.093 296.48 899.093 293C899.093 289.52 900.773 287.7 903.793 287.7C905.793 287.7 906.913 288.38 907.493 289.52V283H908.933V298H907.493ZM900.613 293C900.613 295.54 901.793 296.92 904.033 296.92C906.333 296.92 907.493 295.54 907.493 293C907.493 290.44 906.333 289.1 904.033 289.1C901.453 289.1 900.613 290.44 900.613 293ZM919.158 298V296.44C918.858 297.46 917.658 298.3 915.138 298.3C912.238 298.3 910.358 297.64 910.358 295.26C910.358 293.36 911.938 292.42 915.418 292.04L919.158 291.64V291.56C919.158 289.18 917.078 289.02 915.658 289.02C914.098 289.02 912.258 289.18 912.258 291.46H910.898C910.898 288.84 912.718 287.7 915.618 287.7C918.958 287.7 920.598 288.96 920.598 291.68V298H919.158ZM919.158 294.6V292.74L915.358 293.14C913.598 293.34 911.878 293.88 911.878 295.26C911.878 296.26 912.478 297 915.198 297C918.158 297 919.158 295.44 919.158 294.6ZM927.303 287.7C930.483 287.7 932.163 289.6 932.163 292H930.803C930.803 290.36 929.703 289.1 927.263 289.1C925.063 289.1 923.523 290.12 923.523 292.98C923.523 295.96 925.223 296.92 927.323 296.92C929.783 296.92 930.823 295.66 930.823 294H932.183C932.183 296.4 930.703 298.3 927.343 298.3C923.883 298.3 922.003 296.48 922.003 293C922.003 289.48 923.623 287.7 927.303 287.7ZM926.743 298.26H927.863L927.323 299.44C928.263 299.44 929.243 299.76 929.243 301.12C929.243 302.48 928.443 303.04 927.283 303.04C926.963 303.04 925.283 303 925.283 301.44H926.363C926.363 301.78 926.823 301.98 927.203 301.98C927.763 301.98 928.063 301.7 928.063 301.16C928.063 300.52 927.503 300.32 926.643 300.32H926.023L926.743 298.26ZM941.795 298V296.44C941.495 297.46 940.295 298.3 937.775 298.3C934.875 298.3 932.995 297.64 932.995 295.26C932.995 293.36 934.575 292.42 938.055 292.04L941.795 291.64V291.56C941.795 289.18 939.715 289.02 938.295 289.02C936.735 289.02 934.895 289.18 934.895 291.46H933.535C933.535 288.84 935.355 287.7 938.255 287.7C941.595 287.7 943.235 288.96 943.235 291.68V298H941.795ZM941.795 294.6V292.74L937.995 293.14C936.235 293.34 934.515 293.88 934.515 295.26C934.515 296.26 935.115 297 937.835 297C940.795 297 941.795 295.44 941.795 294.6ZM934.575 286.2C934.575 284.64 935.075 283.18 936.775 283.18C938.455 283.18 939.195 285.24 940.235 285.24C940.915 285.24 941.015 284.48 941.015 283.38H942.195C942.195 284.98 941.815 286.4 940.395 286.4C938.475 286.4 938.235 284.36 936.795 284.36C936.355 284.36 935.735 284.64 935.735 286.2H934.575ZM944.64 293C944.64 289.52 946.4 287.7 950.12 287.7C953.84 287.7 955.64 289.52 955.64 293C955.64 296.48 953.84 298.3 950.12 298.3C946.4 298.3 944.64 296.48 944.64 293ZM946.16 293C946.16 295.58 947.44 296.92 950.12 296.92C952.8 296.92 954.1 295.58 954.1 293C954.1 290.44 952.8 289.1 950.12 289.1C947.42 289.1 946.16 290.44 946.16 293ZM962.043 292.82V291.64H964.443V289.22H965.623V291.64H968.043V292.82H965.623V295.22H964.443V292.82H962.043ZM846.792 322H845.372V308H846.792V309.48C847.412 308.36 848.532 307.7 850.492 307.7C853.292 307.7 855.212 309.52 855.212 313C855.212 316.48 852.912 318.3 850.412 318.3C848.492 318.3 847.392 317.58 846.792 316.46V322ZM853.672 313C853.672 310.44 852.652 309.1 850.272 309.1C848.032 309.1 846.792 310.44 846.792 313C846.792 315.54 848.032 316.92 850.272 316.92C852.292 316.92 853.672 315.54 853.672 313ZM858.257 318H856.837V308H858.257V309.46C858.877 308.36 859.957 307.7 861.577 307.7C864.157 307.7 865.317 309.26 865.317 312.04H863.957C863.957 310.28 863.377 309.1 861.377 309.1C859.437 309.1 858.257 310.44 858.257 313V318ZM876.623 313.1V313.46H867.743C867.863 316.1 869.363 317 871.763 317C873.723 317 875.143 315.9 875.143 314.6H876.503C876.503 316.8 874.843 318.3 871.743 318.3C868.023 318.3 866.203 316.48 866.203 313C866.203 309.6 868.043 307.7 871.383 307.7C875.123 307.7 876.623 309.6 876.623 313.1ZM867.783 312.3H875.103C874.963 309.92 873.503 309.02 871.463 309.02C869.543 309.02 867.983 310.12 867.783 312.3ZM869.663 305.7L872.223 301.86L873.163 302.54L870.363 306.2L869.663 305.7ZM877.843 313.82V312.66H883.043V313.82H877.843ZM892.85 318V316.44C892.55 317.46 891.35 318.3 888.83 318.3C885.93 318.3 884.05 317.64 884.05 315.26C884.05 313.36 885.63 312.42 889.11 312.04L892.85 311.64V311.56C892.85 309.18 890.77 309.02 889.35 309.02C887.79 309.02 885.95 309.18 885.95 311.46H884.59C884.59 308.84 886.41 307.7 889.31 307.7C892.65 307.7 894.29 308.96 894.29 311.68V318H892.85ZM892.85 314.6V312.74L889.05 313.14C887.29 313.34 885.57 313.88 885.57 315.26C885.57 316.26 886.17 317 888.89 317C891.85 317 892.85 315.44 892.85 314.6ZM897.515 322H896.095V308H897.515V309.48C898.135 308.36 899.255 307.7 901.215 307.7C904.015 307.7 905.935 309.52 905.935 313C905.935 316.48 903.635 318.3 901.135 318.3C899.215 318.3 898.115 317.58 897.515 316.46V322ZM904.395 313C904.395 310.44 903.375 309.1 900.995 309.1C898.755 309.1 897.515 310.44 897.515 313C897.515 315.54 898.755 316.92 900.995 316.92C903.015 316.92 904.395 315.54 904.395 313ZM908.98 318H907.56V308H908.98V309.46C909.6 308.36 910.68 307.7 912.3 307.7C914.88 307.7 916.04 309.26 916.04 312.04H914.68C914.68 310.28 914.1 309.1 912.1 309.1C910.16 309.1 908.98 310.44 908.98 313V318ZM917.062 313C917.062 309.52 918.822 307.7 922.542 307.7C926.262 307.7 928.062 309.52 928.062 313C928.062 316.48 926.262 318.3 922.542 318.3C918.822 318.3 917.062 316.48 917.062 313ZM918.582 313C918.582 315.58 919.862 316.92 922.542 316.92C925.222 316.92 926.522 315.58 926.522 313C926.522 310.44 925.222 309.1 922.542 309.1C919.842 309.1 918.582 310.44 918.582 313ZM932.629 318L928.269 308H929.829L933.429 316.18L936.989 308H938.569L934.209 318H932.629ZM947.381 318V316.44C947.081 317.46 945.881 318.3 943.361 318.3C940.461 318.3 938.581 317.64 938.581 315.26C938.581 313.36 940.161 312.42 943.641 312.04L947.381 311.64V311.56C947.381 309.18 945.301 309.02 943.881 309.02C942.321 309.02 940.481 309.18 940.481 311.46H939.121C939.121 308.84 940.941 307.7 943.841 307.7C947.181 307.7 948.821 308.96 948.821 311.68V318H947.381ZM947.381 314.6V312.74L943.581 313.14C941.821 313.34 940.101 313.88 940.101 315.26C940.101 316.26 940.701 317 943.421 317C946.381 317 947.381 315.44 947.381 314.6ZM955.526 307.7C958.706 307.7 960.386 309.6 960.386 312H959.026C959.026 310.36 957.926 309.1 955.486 309.1C953.286 309.1 951.746 310.12 951.746 312.98C951.746 315.96 953.446 316.92 955.546 316.92C958.006 316.92 959.046 315.66 959.046 314H960.406C960.406 316.4 958.926 318.3 955.566 318.3C952.106 318.3 950.226 316.48 950.226 313C950.226 309.48 951.846 307.7 955.526 307.7ZM954.966 318.26H956.086L955.546 319.44C956.486 319.44 957.466 319.76 957.466 321.12C957.466 322.48 956.666 323.04 955.506 323.04C955.186 323.04 953.506 323 953.506 321.44H954.586C954.586 321.78 955.046 321.98 955.426 321.98C955.986 321.98 956.286 321.7 956.286 321.16C956.286 320.52 955.726 320.32 954.866 320.32H954.246L954.966 318.26ZM970.018 318V316.44C969.718 317.46 968.518 318.3 965.998 318.3C963.098 318.3 961.218 317.64 961.218 315.26C961.218 313.36 962.798 312.42 966.278 312.04L970.018 311.64V311.56C970.018 309.18 967.938 309.02 966.518 309.02C964.958 309.02 963.118 309.18 963.118 311.46H961.758C961.758 308.84 963.578 307.7 966.478 307.7C969.818 307.7 971.458 308.96 971.458 311.68V318H970.018ZM970.018 314.6V312.74L966.218 313.14C964.458 313.34 962.738 313.88 962.738 315.26C962.738 316.26 963.338 317 966.058 317C969.018 317 970.018 315.44 970.018 314.6ZM962.798 306.2C962.798 304.64 963.298 303.18 964.998 303.18C966.678 303.18 967.418 305.24 968.458 305.24C969.138 305.24 969.238 304.48 969.238 303.38H970.418C970.418 304.98 970.038 306.4 968.618 306.4C966.698 306.4 966.458 304.36 965.018 304.36C964.578 304.36 963.958 304.64 963.958 306.2H962.798ZM972.863 313C972.863 309.52 974.623 307.7 978.343 307.7C982.063 307.7 983.863 309.52 983.863 313C983.863 316.48 982.063 318.3 978.343 318.3C974.623 318.3 972.863 316.48 972.863 313ZM974.383 313C974.383 315.58 975.663 316.92 978.343 316.92C981.023 316.92 982.323 315.58 982.323 313C982.323 310.44 981.023 309.1 978.343 309.1C975.643 309.1 974.383 310.44 974.383 313Z" fill="white"/>
<path d="M641.2 298.3C636.6 298.3 634.4 295.92 634.4 291C634.4 286.08 636.46 283.7 640.76 283.7C644.7 283.7 646.94 285.14 646.94 288.86H645.5C645.5 285.66 643 285.12 640.7 285.12C637.26 285.12 635.96 286.9 635.96 290.98C635.96 295.12 637.68 296.9 641.32 296.9C643.4 296.9 645.58 296.44 645.58 293.32H647.02C647.02 297.04 644.7 298.3 641.2 298.3ZM649.833 298H648.413V288H649.833V289.46C650.453 288.36 651.533 287.7 653.153 287.7C655.733 287.7 656.893 289.26 656.893 292.04H655.533C655.533 290.28 654.953 289.1 652.953 289.1C651.013 289.1 649.833 290.44 649.833 293V298ZM658.316 298V288H659.736V298H658.316ZM657.856 284.96C657.856 284.18 658.216 283.8 659.016 283.8C659.836 283.8 660.196 284.18 660.196 284.96C660.196 285.74 659.836 286.14 659.016 286.14C658.216 286.14 657.856 285.74 657.856 284.96ZM669.953 298V296.44C669.653 297.46 668.453 298.3 665.933 298.3C663.033 298.3 661.153 297.64 661.153 295.26C661.153 293.36 662.733 292.42 666.213 292.04L669.953 291.64V291.56C669.953 289.18 667.873 289.02 666.453 289.02C664.893 289.02 663.053 289.18 663.053 291.46H661.693C661.693 288.84 663.513 287.7 666.413 287.7C669.753 287.7 671.393 288.96 671.393 291.68V298H669.953ZM669.953 294.6V292.74L666.153 293.14C664.393 293.34 662.673 293.88 662.673 295.26C662.673 296.26 663.273 297 665.993 297C668.953 297 669.953 295.44 669.953 294.6ZM678.098 287.7C681.278 287.7 682.958 289.6 682.958 292H681.598C681.598 290.36 680.498 289.1 678.058 289.1C675.858 289.1 674.318 290.12 674.318 292.98C674.318 295.96 676.018 296.92 678.118 296.92C680.578 296.92 681.618 295.66 681.618 294H682.978C682.978 296.4 681.498 298.3 678.138 298.3C674.678 298.3 672.798 296.48 672.798 293C672.798 289.48 674.418 287.7 678.098 287.7ZM677.538 298.26H678.658L678.118 299.44C679.058 299.44 680.038 299.76 680.038 301.12C680.038 302.48 679.238 303.04 678.078 303.04C677.758 303.04 676.078 303 676.078 301.44H677.158C677.158 301.78 677.618 301.98 677.998 301.98C678.558 301.98 678.858 301.7 678.858 301.16C678.858 300.52 678.298 300.32 677.438 300.32H676.818L677.538 298.26ZM692.59 298V296.44C692.29 297.46 691.09 298.3 688.57 298.3C685.67 298.3 683.79 297.64 683.79 295.26C683.79 293.36 685.37 292.42 688.85 292.04L692.59 291.64V291.56C692.59 289.18 690.51 289.02 689.09 289.02C687.53 289.02 685.69 289.18 685.69 291.46H684.33C684.33 288.84 686.15 287.7 689.05 287.7C692.39 287.7 694.03 288.96 694.03 291.68V298H692.59ZM692.59 294.6V292.74L688.79 293.14C687.03 293.34 685.31 293.88 685.31 295.26C685.31 296.26 685.91 297 688.63 297C691.59 297 692.59 295.44 692.59 294.6ZM685.37 286.2C685.37 284.64 685.87 283.18 687.57 283.18C689.25 283.18 689.99 285.24 691.03 285.24C691.71 285.24 691.81 284.48 691.81 283.38H692.99C692.99 284.98 692.61 286.4 691.19 286.4C689.27 286.4 689.03 284.36 687.59 284.36C687.15 284.36 686.53 284.64 686.53 286.2H685.37ZM695.435 293C695.435 289.52 697.195 287.7 700.915 287.7C704.635 287.7 706.435 289.52 706.435 293C706.435 296.48 704.635 298.3 700.915 298.3C697.195 298.3 695.435 296.48 695.435 293ZM696.955 293C696.955 295.58 698.235 296.92 700.915 296.92C703.595 296.92 704.895 295.58 704.895 293C704.895 290.44 703.595 289.1 700.915 289.1C698.215 289.1 696.955 290.44 696.955 293Z" fill="white"/>
<path d="M362.652 298V284H373.252V285.42H364.112V290.3H372.452V291.7H364.112V296.6H373.452V298H362.652ZM376.279 298H374.859V288H376.279V289.48C376.959 288.36 378.159 287.7 380.199 287.7C383.319 287.7 384.699 289.22 384.699 292.32V298H383.259V292.38C383.259 290.44 382.659 289.1 379.939 289.1C377.519 289.1 376.279 290.44 376.279 293V298ZM387.762 294.36V289.38H384.962V288H387.762L388.022 284H389.182V288H394.462V289.38H389.182V294.26C389.182 295.5 389.442 296.92 391.002 296.92C392.102 296.92 393.042 296.3 393.042 294.2H394.422C394.422 297.3 393.062 298.3 390.982 298.3C389.022 298.3 387.762 297.38 387.762 294.36ZM397.47 298H396.05V288H397.47V289.46C398.09 288.36 399.17 287.7 400.79 287.7C403.37 287.7 404.53 289.26 404.53 292.04H403.17C403.17 290.28 402.59 289.1 400.59 289.1C398.65 289.1 397.47 290.44 397.47 293V298ZM415.836 293.1V293.46H406.956C407.076 296.1 408.576 297 410.976 297C412.936 297 414.356 295.9 414.356 294.6H415.716C415.716 296.8 414.056 298.3 410.956 298.3C407.236 298.3 405.416 296.48 405.416 293C405.416 289.6 407.256 287.7 410.596 287.7C414.336 287.7 415.836 289.6 415.836 293.1ZM406.996 292.3H414.316C414.176 289.92 412.716 289.02 410.676 289.02C408.756 289.02 407.196 290.12 406.996 292.3ZM427.356 285.64V286.9C426.716 286.52 425.896 286.34 425.176 286.34C424.456 286.34 423.416 286.76 423.396 288.22H422.556C422.556 286.5 423.476 285.1 425.196 285.1C426.036 285.1 426.756 285.36 427.356 285.64ZM417.196 291.2C417.196 288.88 418.836 287.7 422.076 287.7C425.316 287.7 426.996 288.88 426.996 291.2C426.996 293.52 425.496 294.7 422.256 294.7C418.996 294.7 417.196 293.52 417.196 291.2ZM418.736 291.2C418.736 292.74 420.096 293.4 422.216 293.4C424.416 293.4 425.456 292.74 425.456 291.2C425.456 289.68 424.236 289.02 422.056 289.02C419.576 289.02 418.736 289.68 418.736 291.2ZM422.216 293.58V294.7C419.716 294.7 418.436 294.74 418.436 295.48C418.436 296.1 419.476 296.24 422.416 296.54C425.376 296.82 427.476 296.78 427.476 299.3C427.476 301.3 425.876 302.2 422.536 302.2C418.576 302.2 417.056 301.1 417.056 298.5H418.416C418.416 300.3 419.776 300.9 422.396 300.9C424.556 300.9 426.156 300.6 426.156 299.32C426.156 297.88 424.716 298.24 422.076 297.92C419.756 297.62 417.116 297.6 417.116 295.64C417.116 293.6 419.636 293.58 422.216 293.58ZM437.277 298V296.44C436.977 297.46 435.777 298.3 433.257 298.3C430.357 298.3 428.477 297.64 428.477 295.26C428.477 293.36 430.057 292.42 433.537 292.04L437.277 291.64V291.56C437.277 289.18 435.197 289.02 433.777 289.02C432.217 289.02 430.377 289.18 430.377 291.46H429.017C429.017 288.84 430.837 287.7 433.737 287.7C437.077 287.7 438.717 288.96 438.717 291.68V298H437.277ZM437.277 294.6V292.74L433.477 293.14C431.717 293.34 429.997 293.88 429.997 295.26C429.997 296.26 430.597 297 433.317 297C436.277 297 437.277 295.44 437.277 294.6ZM453.718 298V296.42C453.138 297.56 452.058 298.3 450.098 298.3C447.358 298.3 445.318 296.48 445.318 293C445.318 289.52 446.998 287.7 450.018 287.7C452.018 287.7 453.138 288.38 453.718 289.52V283H455.158V298H453.718ZM446.838 293C446.838 295.54 448.018 296.92 450.258 296.92C452.558 296.92 453.718 295.54 453.718 293C453.718 290.44 452.558 289.1 450.258 289.1C447.678 289.1 446.838 290.44 446.838 293ZM456.783 293C456.783 289.52 458.543 287.7 462.263 287.7C465.983 287.7 467.783 289.52 467.783 293C467.783 296.48 465.983 298.3 462.263 298.3C458.543 298.3 456.783 296.48 456.783 293ZM458.303 293C458.303 295.58 459.583 296.92 462.263 296.92C464.943 296.92 466.243 295.58 466.243 293C466.243 290.44 464.943 289.1 462.263 289.1C459.563 289.1 458.303 290.44 458.303 293ZM469.03 290.46C469.03 288.52 470.81 287.7 473.55 287.7C476.89 287.7 478.49 288.8 478.49 291.4H477.13C477.13 289.58 475.73 289.02 473.41 289.02C470.91 289.02 470.43 289.78 470.43 290.46C470.43 291.2 471.23 291.78 473.93 292.34C476.85 292.94 478.59 293.3 478.59 295.48C478.59 297.54 477.03 298.3 474.09 298.3C470.55 298.3 468.99 297.2 468.99 294.6H470.35C470.35 296.4 471.97 297 474.17 297C476.43 297 477.19 296.4 477.19 295.54C477.19 294.24 475.87 294.2 473.47 293.68C471.29 293.24 469.03 292.56 469.03 290.46ZM384.936 318H383.496V311.72C383.496 310.44 382.976 309.1 380.716 309.1C378.656 309.1 377.616 310.44 377.616 313V318H376.196V308H377.616V309.48C378.256 308.36 379.336 307.7 381.016 307.7C382.796 307.7 383.916 308.4 384.476 309.44C385.076 308.52 386.216 307.7 388.076 307.7C391.016 307.7 392.256 309.22 392.256 312.32V318H390.816V312.38C390.816 310.44 390.296 309.1 388.036 309.1C385.976 309.1 384.936 310.44 384.936 311.74V318ZM402.248 318V316.44C401.948 317.46 400.748 318.3 398.228 318.3C395.328 318.3 393.448 317.64 393.448 315.26C393.448 313.36 395.028 312.42 398.508 312.04L402.248 311.64V311.56C402.248 309.18 400.168 309.02 398.748 309.02C397.188 309.02 395.348 309.18 395.348 311.46H393.988C393.988 308.84 395.808 307.7 398.708 307.7C402.048 307.7 403.688 308.96 403.688 311.68V318H402.248ZM402.248 314.6V312.74L398.448 313.14C396.688 313.34 394.968 313.88 394.968 315.26C394.968 316.26 395.568 317 398.288 317C401.248 317 402.248 315.44 402.248 314.6ZM407.693 314.36V309.38H404.893V308H407.693L407.953 304H409.113V308H414.393V309.38H409.113V314.26C409.113 315.5 409.373 316.92 410.933 316.92C412.033 316.92 412.973 316.3 412.973 314.2H414.353C414.353 317.3 412.993 318.3 410.913 318.3C408.953 318.3 407.693 317.38 407.693 314.36ZM426.002 313.1V313.46H417.122C417.242 316.1 418.742 317 421.142 317C423.102 317 424.522 315.9 424.522 314.6H425.882C425.882 316.8 424.222 318.3 421.122 318.3C417.402 318.3 415.582 316.48 415.582 313C415.582 309.6 417.422 307.7 420.762 307.7C424.502 307.7 426.002 309.6 426.002 313.1ZM417.162 312.3H424.482C424.342 309.92 422.882 309.02 420.842 309.02C418.922 309.02 417.362 310.12 417.162 312.3ZM429.042 318H427.622V308H429.042V309.46C429.662 308.36 430.742 307.7 432.362 307.7C434.942 307.7 436.102 309.26 436.102 312.04H434.742C434.742 310.28 434.162 309.1 432.162 309.1C430.222 309.1 429.042 310.44 429.042 313V318ZM437.525 318V308H438.945V318H437.525ZM437.065 304.96C437.065 304.18 437.425 303.8 438.225 303.8C439.045 303.8 439.405 304.18 439.405 304.96C439.405 305.74 439.045 306.14 438.225 306.14C437.425 306.14 437.065 305.74 437.065 304.96ZM449.162 318V316.44C448.862 317.46 447.662 318.3 445.142 318.3C442.242 318.3 440.362 317.64 440.362 315.26C440.362 313.36 441.942 312.42 445.422 312.04L449.162 311.64V311.56C449.162 309.18 447.082 309.02 445.662 309.02C444.102 309.02 442.262 309.18 442.262 311.46H440.902C440.902 308.84 442.722 307.7 445.622 307.7C448.962 307.7 450.602 308.96 450.602 311.68V318H449.162ZM449.162 314.6V312.74L445.362 313.14C443.602 313.34 441.882 313.88 441.882 315.26C441.882 316.26 442.482 317 445.202 317C448.162 317 449.162 315.44 449.162 314.6ZM452.407 318V308H453.827V318H452.407ZM451.947 304.96C451.947 304.18 452.307 303.8 453.107 303.8C453.927 303.8 454.287 304.18 454.287 304.96C454.287 305.74 453.927 306.14 453.107 306.14C452.307 306.14 451.947 305.74 451.947 304.96ZM455.485 310.46C455.485 308.52 457.265 307.7 460.005 307.7C463.345 307.7 464.945 308.8 464.945 311.4H463.585C463.585 309.58 462.185 309.02 459.865 309.02C457.365 309.02 456.885 309.78 456.885 310.46C456.885 311.2 457.685 311.78 460.385 312.34C463.305 312.94 465.045 313.3 465.045 315.48C465.045 317.54 463.485 318.3 460.545 318.3C457.005 318.3 455.445 317.2 455.445 314.6H456.805C456.805 316.4 458.425 317 460.625 317C462.885 317 463.645 316.4 463.645 315.54C463.645 314.24 462.325 314.2 459.925 313.68C457.745 313.24 455.485 312.56 455.485 310.46Z" fill="white"/>
<path d="M54.1316 25.579H932.421C960.035 25.579 982.421 47.9647 982.421 75.579V197.026C982.421 224.641 960.035 247.026 932.421 247.026H455.012" stroke="white" stroke-width="5" stroke-dasharray="100 50"/>
<circle cx="54.5789" cy="25.5789" r="23.0789" fill="#AFF26D" stroke="white" stroke-width="5"/>
<circle cx="305.105" cy="25.5789" r="23.0789" fill="#101010" stroke="white" stroke-width="5"/>
<circle cx="648.684" cy="25.5789" r="23.0789" fill="#101010" stroke="white" stroke-width="5"/>
<circle cx="982.421" cy="98.9474" r="23.0789" fill="#101010" stroke="white" stroke-width="5"/>
<circle cx="910.842" cy="247.474" r="23.0789" fill="#101010" stroke="white" stroke-width="5"/>
<path d="M669.711 270.553C682.457 270.553 692.789 260.22 692.789 247.474C692.789 234.728 682.457 224.395 669.711 224.395C656.964 224.395 646.632 234.728 646.632 247.474C646.632 260.22 656.964 270.553 669.711 270.553Z" fill="#101010" stroke="white" stroke-width="5"/>
<circle cx="416.947" cy="247.474" r="23.0789" fill="#101010" stroke="white" stroke-width="5"/>
<path d="M210.414 27.4142C211.195 26.6332 211.195 25.3668 210.414 24.5858L197.686 11.8579C196.905 11.0768 195.639 11.0768 194.858 11.8579C194.077 12.6389 194.077 13.9052 194.858 14.6863L206.172 26L194.858 37.3137C194.077 38.0948 194.077 39.3611 194.858 40.1421C195.639 40.9232 196.905 40.9232 197.686 40.1421L210.414 27.4142ZM192 28L209 28V24L192 24V28Z" fill="white"/>
<path d="M503.414 27.4142C504.195 26.6332 504.195 25.3668 503.414 24.5858L490.686 11.8579C489.905 11.0768 488.639 11.0768 487.858 11.8579C487.077 12.6389 487.077 13.9052 487.858 14.6863L499.172 26L487.858 37.3137C487.077 38.0948 487.077 39.3611 487.858 40.1421C488.639 40.9232 489.905 40.9232 490.686 40.1421L503.414 27.4142ZM485 28L502 28V24L485 24V28Z" fill="white"/>
<path d="M796.414 27.4142C797.195 26.6332 797.195 25.3668 796.414 24.5858L783.686 11.8579C782.905 11.0768 781.639 11.0768 780.858 11.8579C780.077 12.6389 780.077 13.9052 780.858 14.6863L792.172 26L780.858 37.3137C780.077 38.0948 780.077 39.3611 780.858 40.1421C781.639 40.9232 782.905 40.9232 783.686 40.1421L796.414 27.4142ZM778 28L795 28V24L778 24V28Z" fill="white"/>
<path d="M767.586 245.586C766.805 246.367 766.805 247.633 767.586 248.414L780.314 261.142C781.095 261.923 782.361 261.923 783.142 261.142C783.923 260.361 783.923 259.095 783.142 258.314L771.828 247L783.142 235.686C783.923 234.905 783.923 233.639 783.142 232.858C782.361 232.077 781.095 232.077 780.314 232.858L767.586 245.586ZM786 245L769 245L769 249L786 249L786 245Z" fill="white"/>
<path d="M557.586 245.586C556.805 246.367 556.805 247.633 557.586 248.414L570.314 261.142C571.095 261.923 572.361 261.923 573.142 261.142C573.923 260.361 573.923 259.095 573.142 258.314L561.828 247L573.142 235.686C573.923 234.905 573.923 233.639 573.142 232.858C572.361 232.077 571.095 232.077 570.314 232.858L557.586 245.586ZM576 245L559 245L559 249L576 249L576 245Z" fill="white"/>
<path d="M967.059 232.055C967.327 233.127 968.412 233.779 969.484 233.512L986.949 229.158C988.021 228.891 988.673 227.806 988.406 226.734C988.139 225.662 987.054 225.01 985.982 225.277L970.457 229.147L966.587 213.622C966.32 212.55 965.235 211.898 964.163 212.165C963.091 212.432 962.439 213.518 962.706 214.589L967.059 232.055ZM976.042 215.97L967.286 230.541L970.714 232.601L979.471 218.03L976.042 215.97Z" fill="white"/>
</svg>
